<svg width="50" height="50" viewBox="0 0 50 50" fill="none" xmlns="http://www.w3.org/2000/svg">
<circle cx="25" cy="25" r="25" fill="#F5B96D"/>
<path d="M21.81 15L18.19 18.63" stroke="#48403D" stroke-width="1.5" stroke-miterlimit="10" stroke-linecap="round" stroke-linejoin="round"/>
<path d="M28.19 15L31.81 18.63" stroke="#48403D" stroke-width="1.5" stroke-miterlimit="10" stroke-linecap="round" stroke-linejoin="round"/>
<path d="M15 20.85C15 19 15.99 18.85 17.22 18.85H32.78C34.01 18.85 35 19 35 20.85C35 23 34.01 22.85 32.78 22.85H17.22C15.99 22.85 15 23 15 20.85Z" stroke="#48403D" stroke-width="1.5"/>
<path d="M22.76 27V30.55" stroke="#48403D" stroke-width="1.5" stroke-linecap="round"/>
<path d="M27.36 27V30.55" stroke="#48403D" stroke-width="1.5" stroke-linecap="round"/>
<path d="M16.5 23L17.91 31.64C18.23 33.58 19 35 21.86 35H27.89C31 35 31.46 33.64 31.82 31.76L33.5 23" stroke="#48403D" stroke-width="1.5" stroke-linecap="round"/>
</svg>
